# xmcd CD database file
#
# Track frame offsets:
#	150
#	11863
#	31040
#	51588
#	66765
#	80385
#	92645
#	104433
#	136175
#	147610
#	161495
#	176210
#	189285
#	203853
#	216808
#	229480
#	243523
#	266908
#	280725
#	292600
#
# Disc length: 4053 seconds
#
# Revision: 3
# Processed by: cddbd v1.5.2PL0 Copyright (c) Steve Scherf et al.
# Submitted via: CDex 1.51
#
DISCID=2a0fd314
DTITLE=Stan Kenton and His Orchestra - Vol. 1009 - Intermission Riff
DYEAR=1991
DGENRE=Jazz
TTITLE0=Artistry Jumps
TTITLE1=Intermission Riff
TTITLE2=The Peanut Vendor
TTITLE3=Eager Beaver
TTITLE4=Minor Riff
TTITLE5=Fascinating Rhythm
TTITLE6=Artistry in Boogie
TTITLE7=Concerto to End All Concertos
TTITLE8=Lover
TTITLE9=Interlude
TTITLE10=Taboo
TTITLE11=Swing House
TTITLE12=Portrait of a Count
TTITLE13=Invention for Guitar and Trumpet
TTITLE14=Lover Man
TTITLE15=Limelight
TTITLE16=Stella by Starlight
TTITLE17=Southern Scandal
TTITLE18=Collaboration
TTITLE19=Malaguena
EXTD=YEAR: 1991
EXTT0=
EXTT1=
EXTT2=
EXTT3=
EXTT4=
EXTT5=
EXTT6=
EXTT7=
EXTT8=
EXTT9=
EXTT10=
EXTT11=
EXTT12=
EXTT13=
EXTT14=
EXTT15=
EXTT16=
EXTT17=
EXTT18=
EXTT19=
PLAYORDER=
